<?xml version="1.0" standalone="no"?>
<!DOCTYPE svg PUBLIC "-//W3C//DTD SVG 20010904//EN"
 "http://www.w3.org/TR/2001/REC-SVG-20010904/DTD/svg10.dtd">
<svg version="1.0" xmlns="http://www.w3.org/2000/svg"
 width="410.000000pt" height="410.000000pt" viewBox="0 0 410.000000 410.000000"
 preserveAspectRatio="xMidYMid meet">
<metadata>
Created by potrace 1.11, written by Peter Selinger 2001-2013
</metadata>
<g transform="translate(0.000000,410.000000) scale(0.100000,-0.100000)"
fill="#000000" stroke="none">
<path d="M926 4092 c-2 -4 4 -9 15 -9 11 -1 17 2 14 8 -7 11 -22 12 -29 1z"/>
<path d="M2603 4093 c9 -2 23 -2 30 0 6 3 -1 5 -18 5 -16 0 -22 -2 -12 -5z"/>
<path d="M2945 4053 c6 -41 -2 -76 -16 -67 -6 3 -21 -6 -34 -20 -13 -14 -28
-26 -33 -26 -6 0 -10 -6 -9 -12 2 -52 -4 -78 -18 -78 -8 0 -15 -6 -15 -12 0
-14 -59 -58 -78 -58 -7 0 -12 -4 -12 -10 0 -5 -7 -10 -15 -10 -8 0 -15 -4 -15
-8 0 -9 -70 -33 -79 -28 -3 2 -14 -7 -24 -20 -16 -21 -16 -25 -3 -30 9 -3 16
-13 16 -22 0 -12 3 -13 12 -4 7 7 20 12 30 12 9 0 26 9 37 21 19 20 20 20 55
4 36 -17 42 -26 29 -39 -4 -3 -8 -17 -10 -29 -4 -25 -45 -61 -54 -46 -3 5 -35
9 -72 8 -39 -1 -73 3 -81 10 -16 14 -25 4 -21 -21 2 -10 -2 -18 -8 -19 -7 0
-4 -4 6 -8 18 -7 18 -8 1 -21 -11 -9 -15 -10 -10 -3 5 9 2 11 -8 7 -9 -3 -14
-10 -11 -14 3 -5 0 -10 -6 -12 -19 -6 1 -36 22 -31 11 3 19 0 19 -6 0 -7 -3
-10 -7 -8 -5 3 -14 -2 -22 -10 -12 -13 -11 -14 10 -7 13 4 32 8 42 8 9 0 17 3
17 6 0 3 13 20 29 38 27 29 33 31 73 25 24 -3 50 -6 58 -6 8 0 18 -4 21 -10 4
-5 12 -6 18 -3 14 9 15 136 1 136 -6 0 -5 8 2 20 7 11 16 20 20 20 17 0 44 38
56 79 8 24 27 68 43 97 16 30 26 54 23 54 -3 0 3 14 13 30 9 17 23 30 30 30
19 0 25 18 13 39 -7 15 -6 23 5 35 28 28 13 56 -31 56 -12 0 -14 -8 -9 -37z"/>
<path d="M3761 4066 c-9 -11 -9 -16 0 -22 7 -4 9 -3 5 4 -3 5 0 12 6 15 7 2
10 7 7 11 -3 4 -12 0 -18 -8z"/>
<path d="M950 4041 c0 -11 -4 -23 -10 -26 -17 -11 -11 -20 23 -35 43 -19 42
-19 43 15 1 29 -24 65 -46 65 -5 0 -10 -9 -10 -19z"/>
<path d="M2533 4007 c-11 -12 -24 -33 -28 -45 -6 -22 -5 -23 17 -17 23 8 58
41 58 55 0 4 -6 13 -13 19 -11 8 -19 5 -34 -12z"/>
<path d="M3469 3973 c6 -20 4 -32 -5 -41 -11 -10 -11 -16 3 -32 23 -26 31 -25
45 5 6 14 17 25 24 25 19 0 43 28 40 47 -2 14 -14 19 -59 21 l-56 3 8 -28z"/>
<path d="M2471 3941 c-7 -5 -10 -14 -7 -20 11 -18 25 -13 23 9 -1 11 -1 20 -2
20 0 0 -6 -4 -14 -9z"/>
<path d="M2436 3923 c-6 -14 -5 -15 5 -6 7 7 10 15 7 18 -3 3 -9 -2 -12 -12z"/>
<path d="M3376 3865 c-27 -41 -15 -66 39 -79 16 -4 34 -13 38 -19 6 -8 7 -6 4
4 -3 9 0 22 6 28 8 8 7 14 -2 24 -11 10 -12 9 -6 -2 6 -10 4 -12 -4 -7 -7 5
-10 15 -7 23 4 11 2 13 -9 9 -8 -3 -14 -2 -14 2 6 38 -24 49 -45 17z"/>
<path d="M930 3800 c-48 -26 -60 -38 -60 -60 0 -29 36 -34 70 -10 18 13 53 24
85 27 45 5 53 8 44 19 -6 8 -18 14 -26 14 -7 0 -16 7 -19 15 -8 20 -51 18 -94
-5z"/>
<path d="M1190 3709 c7 -11 14 -19 16 -16 7 7 -7 37 -17 37 -6 0 -5 -9 1 -21z"/>
<path d="M1810 3723 c0 -17 16 -31 35 -33 33 -4 42 -1 42 14 0 8 -8 13 -19 11
-10 -2 -18 2 -18 8 0 7 -4 6 -10 -3 -6 -10 -10 -11 -10 -2 0 6 -4 12 -10 12
-5 0 -10 -3 -10 -7z"/>
<path d="M2915 3700 c-4 -6 -11 -8 -16 -5 -5 4 -9 -8 -9 -24 0 -17 5 -31 10
-31 6 0 10 5 10 10 0 6 6 10 14 10 7 0 16 11 18 25 5 25 -14 36 -27 15z"/>
<path d="M582 3633 c-12 -2 -20 -9 -17 -14 4 -5 1 -9 -4 -9 -6 0 -11 5 -11 10
0 6 -13 9 -30 8 -16 -1 -30 -3 -30 -4 0 -1 7 -18 15 -37 17 -40 31 -41 75 -2
14 12 36 29 50 38 l24 17 -24 -1 c-14 -1 -35 -4 -48 -6z"/>
<path d="M3532 3584 c-1 -13 0 -24 2 -24 7 0 14 40 7 44 -4 3 -8 -6 -9 -20z"/>
<path d="M1581 3551 c-48 -6 -48 -6 3 -48 17 -14 36 -17 37 -5 0 4 3 19 5 35
3 15 3 26 2 25 -2 0 -23 -4 -47 -7z"/>
<path d="M770 3540 c0 -6 -4 -8 -10 -5 -5 3 -10 1 -10 -4 0 -6 -9 -11 -21 -11
-11 0 -17 -5 -14 -10 4 -6 12 -8 18 -4 7 3 1 -3 -13 -14 -13 -11 -29 -18 -34
-15 -5 3 -6 1 -2 -5 3 -5 0 -13 -6 -15 -10 -4 -10 -6 0 -6 7 -1 10 -5 7 -11
-3 -5 3 -10 14 -10 12 0 22 5 22 10 1 6 3 15 4 20 1 6 3 13 4 16 0 4 8 1 16
-6 11 -9 18 -10 28 -1 16 13 20 68 6 76 -5 4 -9 1 -9 -5z"/>
<path d="M3512 3537 c2 -11 -8 -24 -26 -35 -36 -21 -60 -43 -81 -75 -16 -25
-16 -25 17 -22 60 5 108 -6 108 -25 0 -44 60 -53 70 -10 6 23 10 25 71 26 103
1 149 12 149 36 0 25 -18 58 -31 58 -6 0 -8 -4 -4 -9 3 -6 -10 -13 -29 -17
-20 -3 -40 -12 -47 -20 -16 -19 -98 -19 -105 1 -4 8 -12 15 -19 15 -7 0 -18 6
-25 14 -6 8 -19 12 -27 9 -13 -5 -15 -1 -11 20 3 14 1 32 -4 39 -7 10 -8 8 -6
-5z"/>
<path d="M2740 3470 c0 -5 5 -10 10 -10 6 0 10 5 10 10 0 6 -4 10 -10 10 -5 0
-10 -4 -10 -10z"/>
<path d="M1388 3443 c7 -3 16 -2 19 1 4 3 -2 6 -13 5 -11 0 -14 -3 -6 -6z"/>
<path d="M1410 3415 c0 -18 21 -65 30 -65 10 0 30 23 30 35 0 5 -14 18 -30 27
-24 14 -30 14 -30 3z"/>
<path d="M2740 3420 c0 -5 5 -10 10 -10 6 0 10 5 10 10 0 6 -4 10 -10 10 -5 0
-10 -4 -10 -10z"/>
<path d="M2657 3350 c-3 -11 -1 -23 4 -26 5 -3 7 -10 4 -15 -4 -5 -1 -10 4
-10 6 -1 16 -2 22 -3 6 0 16 -9 23 -18 7 -10 16 -18 20 -18 11 0 0 41 -13 49
-7 5 -13 12 -14 17 -1 5 -12 9 -25 9 -20 -1 -21 1 -8 11 9 6 13 14 9 17 -11
12 -21 7 -26 -13z"/>
<path d="M3290 3355 c0 -8 9 -15 20 -15 11 0 20 7 20 15 0 8 -9 15 -20 15 -11
0 -20 -7 -20 -15z"/>
<path d="M3356 3355 c-3 -9 0 -15 9 -15 16 0 20 16 6 24 -5 3 -11 -1 -15 -9z"/>
<path d="M2130 3329 c0 -7 -10 -9 -25 -7 -14 3 -25 1 -25 -3 0 -5 -10 -9 -22
-9 -12 0 -18 -3 -15 -7 4 -3 2 -12 -5 -20 -10 -12 -7 -12 18 -1 16 7 32 17 36
23 5 6 8 5 8 -2 0 -18 35 -16 50 2 12 15 6 35 -11 35 -5 0 -9 -5 -9 -11z"/>
<path d="M2448 3323 c6 -2 9 -10 5 -16 -15 -24 -13 -55 4 -68 16 -12 17 -12 7
1 -13 17 -8 63 6 68 16 6 1 22 -18 21 -11 0 -12 -2 -4 -6z"/>
<path d="M2410 3313 c-18 -6 -40 -33 -40 -47 1 -6 8 0 16 14 8 14 13 17 10 8
-3 -11 2 -22 13 -28 16 -8 19 -5 23 21 5 33 1 39 -22 32z"/>
<path d="M2097 3266 c-3 -8 -3 -17 0 -20 7 -7 33 13 33 25 0 15 -27 10 -33 -5z"/>
<path d="M1448 3253 c7 -3 16 -2 19 1 4 3 -2 6 -13 5 -11 0 -14 -3 -6 -6z"/>
<path d="M2023 3225 c0 -8 9 -15 19 -15 22 0 24 16 2 24 -21 8 -21 8 -21 -9z"/>
<path d="M2706 3215 c-3 -8 -15 -15 -26 -15 -23 0 -28 -38 -8 -58 15 -15 31
-16 22 0 -5 8 -2 9 9 5 9 -3 16 -3 15 1 -1 4 3 16 9 27 8 15 8 25 -2 38 -11
15 -13 16 -19 2z"/>
<path d="M2485 3170 c-3 -6 1 -7 9 -4 18 7 21 14 7 14 -6 0 -13 -4 -16 -10z"/>
<path d="M1066 3095 c-17 -13 -18 -15 -3 -15 11 0 17 -8 17 -23 0 -12 8 -27
18 -33 15 -10 17 -7 14 37 -4 52 -14 58 -46 34z"/>
<path d="M2075 3101 c-6 -11 13 -26 22 -17 4 3 1 6 -6 6 -7 0 -9 5 -6 10 3 6
4 10 1 10 -3 0 -7 -4 -11 -9z"/>
<path d="M295 3090 c3 -5 13 -10 21 -10 8 0 12 5 9 10 -3 6 -13 10 -21 10 -8
0 -12 -4 -9 -10z"/>
<path d="M1643 3085 c1 -5 -4 -9 -12 -7 -12 3 -12 0 -2 -11 15 -19 51 -10 51
14 0 11 -7 17 -19 16 -11 0 -19 -6 -18 -12z"/>
<path d="M1310 3070 c0 -5 -7 -7 -15 -4 -10 4 -15 0 -15 -13 0 -10 -5 -24 -11
-30 -8 -8 -7 -17 3 -34 26 -48 41 -47 53 3 13 53 13 77 -1 82 -8 3 -14 1 -14
-4z"/>
<path d="M2193 3062 c-18 -9 -33 -19 -33 -24 0 -9 50 11 70 29 18 17 4 15 -37
-5z"/>
<path d="M850 3060 c0 -5 5 -10 10 -10 6 0 10 5 10 10 0 6 -4 10 -10 10 -5 0
-10 -4 -10 -10z"/>
<path d="M3680 3045 c0 -8 2 -15 4 -15 2 0 6 7 10 15 3 8 1 15 -4 15 -6 0 -10
-7 -10 -15z"/>
<path d="M2405 3040 c3 -5 11 -10 16 -10 6 0 7 5 4 10 -3 6 -11 10 -16 10 -6
0 -7 -4 -4 -10z"/>
<path d="M2175 3014 c-87 -18 -138 -40 -168 -73 -43 -47 -85 -70 -96 -52 -5 7
-11 12 -15 12 -25 -4 -27 2 -6 14 28 16 19 21 -10 5 -25 -13 -19 -46 8 -43 15
2 20 -2 16 -11 -6 -16 32 -46 61 -47 20 0 20 0 0 -9 -14 -6 -16 -9 -5 -10 8
-1 -1 -6 -20 -11 -19 -4 -44 -6 -54 -2 -15 4 -18 1 -13 -11 8 -21 -2 -20 -54
4 -39 17 -41 20 -17 20 14 0 28 -6 31 -12 2 -7 8 -10 12 -6 15 14 -6 26 -57
32 -40 6 -49 10 -38 18 12 8 11 9 -3 4 -10 -3 -21 -6 -25 -6 -3 0 3 -7 14 -15
19 -14 19 -15 -3 -21 -25 -7 -30 -20 -10 -27 6 -2 3 -3 -8 -1 -26 4 -75 -17
-75 -33 0 -6 -10 -19 -22 -27 -12 -9 -17 -16 -10 -16 6 0 12 -7 12 -16 0 -8 5
-12 10 -9 6 3 10 -1 10 -9 0 -9 5 -16 10 -16 6 0 10 7 10 15 0 21 29 19 36 -2
3 -10 10 -27 15 -38 17 -37 19 -64 3 -58 -8 3 -14 13 -14 22 0 9 -7 24 -14 34
-14 17 -15 17 -21 -4 -5 -14 -3 -25 4 -27 6 -2 11 -28 12 -60 0 -52 16 -120
19 -82 0 12 3 11 11 -3 7 -13 8 -31 2 -55 -8 -30 -6 -40 8 -55 17 -18 17 -18
21 4 2 12 9 24 17 27 9 3 11 0 6 -8 -5 -9 -4 -11 4 -6 6 4 9 12 6 17 -4 5 1 9
9 9 9 0 16 8 16 18 0 10 7 27 15 38 8 10 15 27 15 37 0 9 4 17 9 17 5 0 11 12
14 28 3 15 15 38 26 51 11 13 18 28 15 32 -3 5 2 9 10 9 9 0 16 7 16 15 0 7 8
19 18 24 9 6 13 11 7 11 -5 0 2 8 15 17 14 10 29 17 34 15 5 -2 16 0 25 4 9 4
18 8 21 9 29 10 37 19 33 36 -3 10 -12 19 -21 19 -10 0 -7 6 9 19 19 14 36 18
77 15 40 -3 51 -1 46 8 -4 7 9 2 29 -10 20 -12 37 -18 37 -13 0 4 13 6 30 3
45 -6 26 -21 -23 -18 -51 3 -76 -11 -51 -29 9 -6 17 -23 17 -38 0 -14 2 -26 6
-25 19 2 20 -5 6 -31 -11 -22 -12 -32 -3 -37 7 -4 8 -3 4 4 -8 14 -4 15 18 6
15 -6 15 -7 1 -18 -15 -10 -14 -12 3 -13 23 -2 25 27 3 44 -18 13 -9 27 27 38
22 6 27 -3 24 -47 -1 -11 4 -15 12 -12 8 3 17 0 21 -5 3 -6 11 -9 16 -6 5 4 6
-2 2 -11 -4 -11 -8 -13 -11 -6 -2 8 -11 7 -28 -5 -14 -9 -23 -22 -20 -29 3 -7
1 -16 -4 -19 -5 -3 -11 5 -13 17 -4 19 -5 18 -6 -6 -1 -21 -5 -27 -16 -22 -8
3 -15 1 -15 -5 0 -6 -6 -7 -12 -3 -7 4 -10 3 -5 -1 12 -13 45 -16 52 -4 5 6
12 6 23 -3 12 -10 14 -10 8 -1 -5 9 0 12 18 11 13 -1 22 -6 20 -10 -3 -5 -9
-6 -14 -3 -4 3 -6 -3 -4 -12 7 -24 49 -44 63 -30 10 10 16 -2 12 -25 0 -5 4
-8 10 -8 6 0 9 7 5 15 -3 8 -1 15 4 15 5 0 12 -9 15 -20 8 -26 35 -26 42 0 3
11 10 17 15 14 5 -3 2 -17 -8 -31 -15 -24 -15 -26 0 -20 13 5 16 0 16 -24 0
-38 -35 -55 -63 -31 -16 15 -17 14 -12 0 5 -13 2 -15 -15 -11 -16 4 -18 8 -8
14 9 6 7 9 -9 9 -12 0 -25 -5 -29 -12 -4 -7 -3 -8 4 -4 7 4 12 2 12 -3 0 -17
-18 -13 -30 7 -8 11 -13 13 -16 5 -7 -15 -34 -5 -34 13 0 7 8 18 18 24 15 10
15 11 -3 5 -11 -4 -31 -9 -45 -11 -13 -1 -26 -7 -28 -12 -1 -5 -14 -7 -28 -4
-15 3 -29 -1 -34 -8 -5 -9 -17 -7 -47 7 -57 28 -137 29 -163 3 -11 -11 -26
-18 -32 -14 -6 4 -8 3 -4 -4 3 -6 2 -13 -4 -17 -5 -3 -10 -12 -10 -18 0 -9 2
-9 8 0 5 8 12 3 19 -17 6 -17 7 -30 2 -30 -5 0 -9 -7 -9 -15 0 -8 -6 -15 -14
-15 -8 0 -16 -7 -20 -15 -3 -8 -10 -15 -16 -15 -6 0 -8 5 -4 12 5 7 3 8 -5 4
-7 -5 -10 -10 -7 -13 3 -4 -3 -14 -14 -23 -20 -17 -20 -18 -1 -23 11 -3 43 -3
72 0 45 4 51 2 45 -13 -4 -11 -2 -15 8 -11 10 4 13 1 9 -9 -4 -12 -23 -19 -45
-15 -4 0 -5 -6 -2 -14 4 -8 15 -15 26 -15 10 0 17 -4 14 -9 -4 -5 0 -12 6 -14
7 -3 4 -6 -7 -6 -17 -1 -17 -3 -5 -11 13 -8 12 -10 -2 -10 -10 0 -18 -4 -18
-10 0 -5 4 -10 8 -10 5 0 8 -10 8 -22 -1 -17 4 -22 18 -20 12 2 16 -1 11 -10
-7 -11 -5 -11 6 0 11 11 12 14 1 21 -11 7 -10 10 3 15 15 5 16 0 11 -36 -3
-24 -3 -37 0 -30 3 6 9 10 14 7 4 -3 6 3 3 14 -3 10 0 22 6 25 7 5 8 1 4 -11
-6 -16 -5 -17 12 -3 10 8 21 14 24 12 3 -2 7 1 9 6 2 6 -5 9 -14 8 -9 0 -19 5
-22 13 -5 14 -3 14 46 -6 6 -3 12 2 12 11 0 12 7 15 25 12 17 -3 33 3 49 17
36 33 54 47 61 47 12 0 35 29 35 44 0 12 8 16 30 14 17 -1 30 -5 30 -9 0 -4 8
-6 18 -4 29 4 50 -13 57 -47 13 -57 33 -86 65 -93 16 -4 30 -11 30 -16 0 -6
-4 -7 -10 -4 -5 3 -10 1 -10 -4 0 -6 9 -11 20 -11 11 0 23 -7 27 -16 5 -13 7
-13 14 -2 7 10 9 9 9 -4 0 -9 -8 -19 -17 -21 -12 -3 -8 -7 15 -12 17 -4 32
-14 32 -21 0 -8 7 -14 16 -14 10 0 14 7 12 23 -1 13 5 32 15 41 21 21 22 36 2
36 -22 0 -18 17 6 23 12 3 18 10 14 17 -4 7 2 14 14 17 11 3 18 9 15 14 -9 15
26 10 42 -6 9 -8 27 -15 41 -15 15 0 24 3 20 6 -3 3 -2 17 3 30 7 18 5 26 -8
33 -16 9 -16 10 1 16 20 8 24 74 6 92 -8 8 -7 13 2 18 8 6 10 4 4 -5 -6 -9 -4
-11 4 -6 12 8 7 20 -7 22 -25 3 -42 18 -37 32 3 9 3 13 -1 9 -4 -4 -14 -1 -22
6 -13 9 -14 9 -8 0 5 -9 2 -11 -8 -7 -12 5 -13 11 -6 25 10 17 8 18 -14 9 -13
-5 -27 -6 -30 -3 -3 4 -6 1 -6 -6 0 -8 7 -11 18 -6 12 4 14 3 6 -5 -12 -12
-47 -3 -39 10 3 5 1 11 -4 14 -5 4 -13 2 -16 -4 -4 -7 -11 -7 -18 -2 -7 5 -19
8 -28 7 -9 -2 -16 3 -16 11 0 7 3 11 7 9 4 -2 7 2 7 10 0 8 -4 12 -8 9 -4 -2
-17 12 -29 31 -18 29 -20 38 -9 51 11 13 15 12 39 -11 14 -14 31 -25 38 -25 7
0 12 -4 12 -9 0 -5 9 -11 20 -14 32 -8 23 13 -11 27 -18 7 -28 15 -23 18 5 3
4 4 -2 2 -6 -1 -17 2 -25 7 -9 5 -10 9 -2 9 6 0 11 9 10 20 -1 11 -8 20 -16
20 -11 0 -11 3 2 18 10 10 14 22 10 27 -5 4 -2 5 5 1 7 -4 10 -12 7 -17 -11
-16 5 -47 33 -64 15 -10 21 -12 15 -4 -17 17 -16 30 0 23 7 -2 19 7 27 21 14
27 30 33 31 13 0 -7 4 -4 9 7 l9 20 0 -20 c1 -17 3 -17 11 -5 9 13 10 13 10 0
0 -9 -5 -21 -12 -28 -7 -7 -8 -12 -2 -12 6 0 17 12 24 28 l13 27 6 -24 c5 -19
8 -21 17 -10 7 8 15 24 18 37 4 12 15 22 24 21 10 0 12 -3 5 -5 -20 -8 7 -124
29 -124 5 0 6 -5 3 -10 -4 -6 -1 -18 7 -27 8 -10 15 -56 18 -127 3 -69 9 -109
15 -106 6 3 10 10 10 15 0 6 10 24 23 39 21 27 27 49 23 89 -1 9 3 17 8 17 6
0 11 21 11 50 0 28 5 50 10 50 6 0 10 -4 10 -10 0 -5 9 -14 20 -20 18 -10 19
-9 10 17 -6 16 -13 35 -17 43 -3 8 -7 18 -7 22 -1 3 -4 9 -8 13 -4 4 -4 14 -1
22 5 12 9 11 20 -8 l14 -24 -6 27 c-6 29 -1 30 78 12 17 -4 27 -2 27 5 0 6 -9
11 -20 11 -33 0 -23 17 15 24 54 11 50 24 -7 22 -44 -1 -53 2 -56 18 -2 10 0
16 5 14 4 -3 22 11 38 30 30 36 24 36 -26 -1 -21 -15 -31 -17 -45 -8 -17 9
-17 10 6 11 14 1 19 4 13 7 -21 8 -15 22 7 16 12 -3 20 0 20 6 0 7 4 10 9 7 5
-3 11 4 14 15 5 19 4 20 -12 5 -10 -9 -28 -18 -39 -21 -25 -4 -97 14 -88 22 8
8 -66 53 -76 47 -5 -3 -8 0 -8 5 0 14 33 14 46 1 7 -7 11 -6 11 4 0 8 -4 13
-9 10 -4 -3 -8 0 -8 5 0 6 -6 11 -14 11 -7 0 -16 8 -19 19 -4 16 1 18 35 15
44 -4 43 11 -1 21 -28 6 -56 28 -63 50 -2 6 -16 10 -32 10 -16 0 -31 5 -33 12
-3 7 4 10 19 7 21 -4 21 -4 3 5 -12 5 -25 5 -32 -1 -9 -7 -13 -7 -13 2 0 7 -7
10 -15 7 -8 -4 -17 -2 -20 4 -4 5 -12 9 -18 8 -21 -4 -67 13 -67 23 0 6 6 8
14 5 17 -7 30 20 14 29 -6 4 -8 3 -5 -3 4 -6 -2 -13 -13 -16 -13 -3 -20 0 -20
9 0 8 4 14 8 14 5 0 17 7 28 16 10 8 13 12 6 9 -15 -8 -117 -26 -149 -27 -14
0 -20 -4 -16 -11 4 -6 0 -8 -10 -4 -9 3 -23 0 -31 -8 -17 -17 -46 -20 -46 -5
0 6 7 10 15 10 8 0 30 9 49 20 21 11 38 15 41 9 4 -5 11 -7 16 -3 18 11 -3 26
-28 20 -13 -4 -29 -4 -34 0 -6 3 -34 8 -64 10 -30 2 -57 4 -62 5 -4 1 -24 1
-43 0 -24 -1 -31 -4 -21 -10 8 -5 9 -11 3 -15 -6 -3 -12 0 -14 6 -6 16 -88 19
-88 4 0 -8 -3 -7 -8 0 -4 6 -14 14 -22 17 -10 4 -8 6 8 6 12 1 22 6 22 11 0
10 -9 11 -45 4z m-45 -34 c0 -5 -2 -10 -4 -10 -3 0 -8 5 -11 10 -3 6 -1 10 4
10 6 0 11 -4 11 -10z m300 -80 c-7 -5 -25 -3 -39 3 l-25 12 34 5 c36 5 52 -6
30 -20z m-65 0 c4 -7 -3 -8 -22 -4 -38 9 -42 14 -10 14 14 0 29 -5 32 -10z
m-18 -26 c-3 -3 -12 -4 -19 -1 -8 3 -5 6 6 6 11 1 17 -2 13 -5z m-29 -13 c11
-7 10 -9 -3 -14 -9 -4 -13 -3 -10 2 3 5 -3 12 -12 14 -13 3 -14 5 -3 6 8 0 21
-3 28 -8z m413 -8 c13 -16 12 -17 -3 -4 -17 13 -22 21 -14 21 2 0 10 -8 17
-17z m69 -21 c15 -7 26 -32 14 -32 -3 0 -17 9 -31 20 -25 19 -14 26 17 12z
m77 -54 c-3 -8 -6 -5 -6 6 -1 11 2 17 5 13 3 -3 4 -12 1 -19z m-1102 -8 c17
-19 17 -20 0 -20 -10 0 -15 3 -12 7 4 3 -1 12 -11 19 -9 7 -12 14 -6 14 6 0
19 -9 29 -20z m956 -101 c-5 -13 -10 -19 -10 -12 -1 15 10 45 15 40 3 -2 0
-15 -5 -28z m309 -59 c11 -7 5 -8 -20 -4 -43 8 -51 14 -19 14 13 0 31 -5 39
-10z m-465 -97 c0 -38 4 -77 9 -88 9 -19 9 -19 -11 -2 -20 17 -21 17 -28 -5
-13 -39 -13 -63 -1 -71 7 -6 6 -7 -4 -4 -17 4 -25 50 -14 75 4 10 6 20 6 25
-1 4 2 7 6 7 4 0 8 16 9 36 1 28 20 94 27 94 1 0 1 -30 1 -67z m-854 -5 c-11
-11 -13 -10 -7 0 4 7 2 21 -5 30 -12 15 -11 15 6 0 16 -15 17 -20 6 -30z m609
21 c0 -6 -4 -7 -10 -4 -5 3 -10 11 -10 16 0 6 5 7 10 4 6 -3 10 -11 10 -16z
m33 7 c4 -10 1 -13 -8 -9 -8 3 -12 9 -9 14 7 12 11 11 17 -5z m-553 -36 c0 -5
-5 -10 -11 -10 -5 0 -7 5 -4 10 3 6 8 10 11 10 2 0 4 -4 4 -10z m-25 -99 c3
-5 2 -12 -3 -15 -5 -3 -9 1 -9 9 0 17 3 19 12 6z m225 -195 c0 -2 -7 -7 -16
-10 -8 -3 -12 -2 -9 4 6 10 25 14 25 6z m690 -156 c0 -5 -4 -10 -10 -10 -5 0
-10 5 -10 10 0 6 5 10 10 10 6 0 10 -4 10 -10z"/>
<path d="M3698 2952 c2 -20 9 -41 16 -47 17 -14 28 -45 16 -45 -5 0 -12 -11
-16 -25 -3 -14 -17 -34 -30 -44 -13 -10 -24 -24 -24 -30 0 -6 -6 -11 -14 -11
-7 0 -22 -12 -32 -27 -22 -31 -81 -93 -88 -93 -9 0 -73 -67 -79 -84 -3 -8 -18
-18 -32 -22 -14 -3 -25 -10 -25 -15 0 -5 -7 -9 -15 -9 -8 0 -15 -4 -15 -10 0
-5 -7 -10 -15 -10 -8 0 -14 -6 -13 -12 2 -9 -16 -15 -52 -20 -76 -9 -111 -19
-104 -29 3 -5 16 -9 30 -9 14 0 23 4 20 8 -3 4 28 9 67 11 40 1 76 6 81 11 6
6 18 10 28 10 10 0 18 6 18 14 0 7 9 16 20 19 11 3 20 13 20 22 0 14 6 15 33
9 17 -4 37 -7 43 -7 8 0 8 -8 0 -29 -6 -15 -14 -28 -18 -28 -12 0 -10 -48 2
-55 6 -4 4 -16 -6 -31 -15 -22 -15 -24 0 -18 9 3 16 10 16 14 0 5 9 12 21 15
21 7 21 7 -2 31 -17 18 -21 29 -14 40 6 9 14 15 19 14 15 -3 26 24 20 51 -3
19 0 28 12 33 14 5 14 9 3 23 -10 12 -10 14 -1 9 8 -5 12 0 12 16 0 24 50 84
88 106 30 17 72 16 72 -2 0 -8 -4 -17 -9 -20 -21 -13 3 -50 29 -48 3 0 7 -13
8 -30 2 -23 -6 -37 -34 -63 -36 -33 -36 -33 -12 -41 44 -15 47 -14 38 12 -5
13 -6 25 -2 25 4 1 14 2 22 3 23 2 22 151 -2 191 -24 41 -23 96 2 118 11 9 20
27 20 39 0 20 -5 23 -42 23 -39 0 -44 3 -53 33 -17 50 -32 58 -27 14z"/>
<path d="M2730 2970 c20 -13 40 -13 40 0 0 6 -12 10 -27 10 -22 0 -25 -2 -13
-10z"/>
<path d="M1940 2951 c0 -7 -4 -9 -10 -6 -5 3 -10 1 -10 -4 0 -6 4 -11 9 -11
13 0 25 20 17 27 -3 4 -6 1 -6 -6z"/>
<path d="M2755 2940 c-8 -13 5 -13 25 0 13 8 13 10 -2 10 -9 0 -20 -4 -23 -10z"/>
<path d="M990 2919 c0 -15 50 -62 58 -55 3 4 -9 20 -26 36 -18 16 -32 24 -32
19z"/>
<path d="M1296 2905 c4 -8 11 -15 16 -15 6 0 5 6 -2 15 -7 8 -14 15 -16 15 -2
0 -1 -7 2 -15z"/>
<path d="M1804 2869 c-3 -5 9 -9 26 -9 22 0 29 -4 24 -12 -5 -10 -4 -10 6 -1
7 6 10 16 6 21 -7 12 -54 13 -62 1z"/>
<path d="M2888 2873 c7 -3 16 -2 19 1 4 3 -2 6 -13 5 -11 0 -14 -3 -6 -6z"/>
<path d="M1775 2830 c3 -5 11 -10 16 -10 6 0 7 5 4 10 -3 6 -11 10 -16 10 -6
0 -7 -4 -4 -10z"/>
<path d="M1858 2823 c7 -3 16 -2 19 1 4 3 -2 6 -13 5 -11 0 -14 -3 -6 -6z"/>
<path d="M1905 2800 c3 -5 12 -7 20 -3 21 7 19 13 -6 13 -11 0 -18 -4 -14 -10z"/>
<path d="M3442 2695 c-21 -11 -21 -13 -5 -19 10 -3 24 -9 31 -12 8 -4 12 3 12
20 0 29 -4 30 -38 11z"/>
<path d="M3056 2683 c-10 -10 -16 -12 -12 -5 5 9 -4 12 -36 11 -24 -1 -35 -3
-25 -6 9 -2 17 -9 17 -15 0 -5 7 -8 15 -4 8 3 15 1 15 -4 0 -6 11 -5 25 2 14
6 25 17 25 25 0 17 -2 17 -24 -4z"/>
<path d="M990 2676 c0 -21 15 -28 45 -20 39 10 32 34 -10 34 -24 0 -35 -5 -35
-14z"/>
<path d="M1590 2614 c0 -8 5 -12 10 -9 6 3 10 10 10 16 0 5 -4 9 -10 9 -5 0
-10 -7 -10 -16z"/>
<path d="M1635 2620 c3 -5 8 -10 11 -10 2 0 4 5 4 10 0 6 -5 10 -11 10 -5 0
-7 -4 -4 -10z"/>
<path d="M582 2590 c-12 -11 -33 -20 -47 -20 -16 0 -25 -6 -25 -15 0 -8 6 -15
14 -15 7 0 16 -8 19 -19 3 -15 11 -18 33 -13 16 2 36 12 44 21 19 20 21 61 2
61 -7 0 -10 5 -7 10 11 17 -10 11 -33 -10z"/>
<path d="M1620 2594 c0 -8 5 -12 10 -9 6 4 8 11 5 16 -9 14 -15 11 -15 -7z"/>
<path d="M1572 2536 c-6 -14 -16 -26 -22 -26 -5 0 -10 -8 -10 -17 0 -15 4 -14
19 6 12 16 21 20 25 12 4 -6 2 -11 -4 -11 -6 0 -8 -5 -4 -11 12 -20 24 15 16
46 l-8 27 -12 -26z"/>
<path d="M745 2520 c-18 -7 -18 -8 -2 -14 45 -16 48 -16 45 1 -4 20 -17 24
-43 13z"/>
<path d="M1148 2496 c-24 -27 -68 -43 -68 -26 0 10 -50 7 -68 -4 -6 -4 -9 -13
-5 -21 6 -16 39 -20 47 -6 4 5 19 4 38 -2 24 -9 32 -9 35 1 3 6 13 12 24 12
10 0 19 4 19 8 0 4 15 6 34 4 19 -2 51 1 72 8 32 11 38 10 46 -4 11 -20 71
-21 91 -1 8 8 17 12 21 10 3 -3 4 -2 1 2 -3 4 -25 6 -49 4 -34 -2 -45 2 -50
16 -6 15 -8 15 -16 3 -6 -9 -10 -10 -10 -3 0 6 -8 11 -17 11 -10 -1 -41 2 -69
6 -48 7 -54 5 -76 -18z"/>
<path d="M3812 2480 c0 -14 2 -19 5 -12 2 6 2 18 0 25 -3 6 -5 1 -5 -13z"/>
<path d="M1557 2473 c-3 -5 0 -19 5 -33 7 -20 11 -22 18 -10 7 10 5 18 -5 26
-8 6 -12 14 -8 17 3 4 4 7 0 7 -3 0 -8 -3 -10 -7z"/>
<path d="M1631 2417 c17 -32 19 -33 19 -10 0 12 -7 23 -15 27 -13 5 -14 2 -4
-17z"/>
<path d="M550 2419 c0 -4 -12 -14 -27 -21 -14 -7 -28 -20 -29 -28 -17 -88 -17
-90 0 -90 9 0 16 5 16 10 0 6 6 10 13 10 14 0 47 35 47 51 0 5 4 8 9 5 14 -9
41 4 41 20 0 8 -8 22 -18 32 -19 18 -52 26 -52 11z"/>
<path d="M2795 2400 c-3 -5 -1 -10 4 -10 6 0 11 5 11 10 0 6 -2 10 -4 10 -3 0
-8 -4 -11 -10z"/>
<path d="M665 2370 c-16 -7 -17 -9 -3 -9 9 -1 20 4 23 9 7 11 7 11 -20 0z"/>
<path d="M2772 2350 c-12 -16 -22 -32 -22 -37 0 -4 11 8 25 27 14 19 25 35 25
37 0 8 -8 0 -28 -27z"/>
<path d="M297 2363 c-10 -9 -8 -43 2 -43 5 0 14 7 21 15 17 21 -4 48 -23 28z"/>
<path d="M2698 2353 c7 -3 16 -2 19 1 4 3 -2 6 -13 5 -11 0 -14 -3 -6 -6z"/>
<path d="M1701 2314 c0 -11 3 -14 6 -6 3 7 2 16 -1 19 -3 4 -6 -2 -5 -13z"/>
<path d="M2725 2320 c-3 -5 -1 -10 4 -10 6 0 11 5 11 10 0 6 -2 10 -4 10 -3 0
-8 -4 -11 -10z"/>
<path d="M2626 2297 c3 -10 9 -15 12 -12 3 3 0 11 -7 18 -10 9 -11 8 -5 -6z"/>
<path d="M1305 2284 c-11 -8 -19 -18 -19 -22 1 -4 0 -12 -3 -18 -2 -6 12 -35
32 -65 19 -29 35 -56 35 -60 0 -3 7 -6 14 -6 8 0 14 4 13 8 -1 5 12 20 28 34
20 17 26 28 18 31 -7 3 -13 13 -13 22 0 15 -2 15 -10 2 -5 -8 -10 -11 -10 -5
0 5 -5 4 -12 -3 -18 -18 -26 -15 -43 18 -9 17 -11 30 -5 30 12 0 14 36 2 44
-4 2 -16 -2 -27 -10z"/>
<path d="M1562 2205 c1 -42 2 -44 16 -24 8 12 11 30 8 45 -10 40 -26 27 -24
-21z"/>
<path d="M1022 2227 c-17 -21 -3 -54 29 -67 16 -7 30 -18 30 -24 2 -21 -3 -41
-13 -47 -5 -3 -9 -9 -8 -13 4 -12 -22 -66 -31 -66 -20 0 -7 -53 19 -79 25 -25
28 -26 43 -12 17 16 22 60 20 164 -1 45 3 64 19 84 31 39 26 52 -21 51 -22 0
-46 5 -52 11 -14 14 -22 14 -35 -2z"/>
<path d="M3800 2220 c-8 -5 -10 -10 -5 -10 6 0 4 -4 -4 -9 -8 -5 -11 -16 -6
-30 13 -42 40 -16 33 33 -2 20 -6 23 -18 16z"/>
<path d="M3349 2202 c-9 -9 -24 -29 -34 -44 -13 -22 -25 -28 -51 -28 -25 0
-34 -4 -34 -16 0 -13 8 -15 43 -10 23 3 54 6 68 6 22 0 30 7 43 40 9 22 20 40
26 40 5 0 10 7 10 15 0 21 -51 19 -71 -3z"/>
<path d="M2950 2139 c0 -5 5 -7 10 -4 6 3 10 8 10 11 0 2 -4 4 -10 4 -5 0 -10
-5 -10 -11z"/>
<path d="M1610 2122 c-17 -6 -45 -32 -34 -32 3 0 1 -6 -5 -14 -15 -18 -4 -66
16 -66 10 0 12 6 7 23 -4 12 -11 25 -16 28 -6 4 2 9 16 13 14 3 26 11 26 16 0
6 7 10 15 10 8 0 15 6 15 13 0 14 -14 17 -40 9z"/>
<path d="M576 2025 c4 -8 11 -15 16 -15 6 0 5 6 -2 15 -7 8 -14 15 -16 15 -2
0 -1 -7 2 -15z"/>
<path d="M2121 1960 c-12 -11 -27 -17 -32 -14 -5 3 -9 2 -8 -3 1 -4 -1 -16 -5
-25 -9 -19 -56 -25 -56 -8 0 6 -8 2 -18 -7 -10 -10 -15 -19 -12 -21 4 -1 4
-16 2 -32 -2 -17 1 -37 8 -45 10 -12 9 -15 -4 -15 -21 0 -20 -9 2 -27 9 -8 10
-11 2 -7 -10 5 -8 -3 7 -28 21 -35 21 -37 4 -57 -10 -12 -24 -21 -30 -21 -7 0
-10 -4 -7 -9 3 -5 -4 -11 -15 -14 -12 -3 -19 -10 -16 -14 3 -5 2 -15 -3 -23
-11 -18 6 -50 26 -50 11 0 13 -6 8 -22 -6 -21 -6 -22 19 -5 24 15 25 15 20 -4
-3 -11 -14 -24 -24 -30 -25 -13 -24 -29 2 -29 16 0 19 4 15 17 -6 14 -3 14 16
-3 13 -12 33 -27 45 -33 26 -13 125 -12 116 2 -3 5 4 4 16 -2 35 -19 26 -53
-19 -74 -22 -10 -37 -23 -34 -28 3 -6 -4 -7 -19 -4 -18 5 -28 2 -36 -12 -10
-17 -10 -17 -11 0 0 22 -42 23 -60 2 -10 -12 -9 -15 5 -15 17 0 17 -1 0 -20
-16 -18 -16 -20 -2 -26 14 -5 14 -8 2 -20 -16 -16 -45 -19 -45 -4 0 6 -7 10
-15 10 -8 0 -15 4 -15 9 0 16 -87 59 -101 51 -7 -5 -18 -6 -26 -3 -7 3 -13 0
-13 -6 0 -6 5 -11 10 -11 6 0 10 -7 10 -15 0 -8 -5 -15 -11 -15 -5 0 -8 -4 -4
-9 3 -5 2 -12 -3 -15 -5 -3 -7 -18 -4 -34 2 -17 -2 -40 -9 -53 -7 -13 -14 -26
-14 -29 -6 -24 -26 -60 -34 -60 -6 0 -8 -6 -5 -13 4 -13 -4 -14 -47 -8 -7 1
-50 38 -50 43 2 13 -13 48 -20 48 -12 0 -12 43 0 56 10 9 38 112 48 173 4 22
1 36 -8 42 -16 9 -20 57 -6 66 6 4 7 1 2 -8 -5 -8 -4 -11 0 -6 26 23 -3 127
-34 127 -13 0 -16 -13 -16 -69 0 -85 -16 -111 -68 -111 -41 0 -47 11 -47 80 0
36 -5 52 -17 59 -10 6 -12 11 -5 11 6 0 12 9 12 20 0 12 7 31 16 44 10 16 12
26 5 31 -17 10 -38 -17 -33 -44 3 -21 1 -23 -7 -11 -8 11 -11 11 -11 2 0 -7
-12 -25 -26 -40 -15 -15 -24 -22 -21 -16 3 6 0 11 -7 11 -8 0 -12 -7 -9 -14 3
-8 1 -13 -5 -11 -5 2 -11 -1 -12 -7 -2 -5 -11 -16 -21 -23 -11 -7 -19 -24 -19
-38 0 -13 -4 -24 -10 -24 -5 0 -10 -7 -10 -15 0 -8 4 -15 9 -15 4 0 6 -12 4
-27 -13 -87 -14 -113 -5 -113 11 0 28 -38 24 -53 -1 -5 3 -5 10 -1 7 5 22 10
33 11 11 1 32 5 47 7 15 3 30 1 33 -4 4 -6 10 -8 14 -6 6 4 7 -12 2 -44 -2
-14 -63 -41 -81 -35 -18 6 -37 40 -32 58 1 4 -6 4 -15 -1 -10 -5 -24 -7 -30
-5 -7 3 -13 -2 -13 -10 0 -8 -7 -18 -16 -21 -12 -5 -15 -14 -10 -40 4 -20 2
-37 -3 -41 -7 -4 -7 -12 1 -24 17 -28 3 -48 -49 -72 -26 -12 -51 -24 -55 -26
-4 -2 -5 3 -2 11 3 9 12 12 22 8 15 -5 15 -3 4 11 -8 9 -11 21 -7 28 5 7 1 10
-11 7 -11 -2 -18 -11 -16 -20 1 -8 -5 -21 -13 -28 -11 -9 -15 -10 -15 0 0 12
-59 -29 -59 -43 -1 -5 4 -5 9 -2 6 3 10 2 10 -4 0 -5 -26 -11 -57 -14 -32 -3
-98 -12 -148 -22 -120 -22 -131 -22 -127 -7 1 8 -2 11 -8 7 -6 -3 -8 -10 -5
-15 3 -4 -14 -15 -37 -24 -81 -29 -203 -65 -240 -71 -24 -4 -51 -19 -75 -41
-22 -21 -43 -32 -52 -29 -8 3 -12 3 -8 -1 3 -4 -9 -24 -28 -46 l-35 -38 0
-305 0 -305 563 0 564 0 12 23 11 22 -6 -22 c-4 -18 -1 -23 15 -23 12 0 21 5
21 10 0 6 11 10 24 10 14 0 28 -4 31 -10 4 -7 398 -10 1151 -10 l1144 0 0 224
c0 208 -1 225 -20 249 -24 30 -26 47 -6 47 10 0 14 10 14 30 -1 34 -16 50 -28
30 -6 -9 -10 -7 -14 8 -7 21 -33 20 -47 -1 -4 -5 -22 4 -40 20 -19 16 -51 40
-71 53 -46 30 -48 48 -8 56 17 4 30 13 30 21 0 10 6 13 16 9 9 -3 18 -6 20 -6
3 0 3 -4 -1 -9 -3 -5 -1 -12 5 -16 5 -3 10 -16 11 -28 1 -20 2 -20 8 3 8 28
34 35 87 25 27 -5 34 -11 34 -29 0 -13 -7 -29 -15 -36 -9 -7 -14 -19 -11 -25
2 -7 -1 -19 -7 -26 -10 -11 -9 -11 6 0 9 7 17 10 17 5 0 -5 5 -2 10 6 11 16
13 181 4 218 -4 12 -11 22 -18 21 -6 -1 -30 -1 -53 0 -45 1 -53 12 -28 37 22
22 18 34 -9 34 -16 0 -32 -11 -46 -30 -21 -29 -19 -57 2 -44 7 4 8 2 4 -4 -4
-7 -22 -12 -40 -12 -26 0 -35 6 -45 26 l-12 27 -20 -22 c-15 -16 -18 -25 -10
-35 16 -19 19 -58 8 -83 -11 -24 -44 -30 -75 -14 -9 6 -51 17 -92 26 -128 27
-163 37 -208 57 -24 11 -54 20 -65 21 -12 0 -30 9 -39 20 -14 16 -31 23 -60
26 -5 1 -8 7 -8 15 0 8 -11 17 -25 20 -13 3 -50 31 -81 61 -30 30 -59 55 -62
55 -4 0 -18 13 -32 28 -82 92 -220 156 -220 103 0 -28 32 -124 47 -142 27 -32
15 -45 -58 -64 -59 -15 -72 -16 -79 -4 -5 7 -7 16 -4 20 2 4 0 10 -5 13 -6 4
-5 19 2 38 9 24 9 32 0 35 -17 6 -16 21 3 40 8 9 13 24 11 34 -3 10 1 23 9 30
8 6 14 22 14 36 0 13 4 21 10 18 5 -3 7 0 4 8 -3 8 9 28 26 46 17 17 27 31 21
31 -5 0 -16 -7 -25 -15 -8 -8 -19 -15 -25 -15 -6 0 -11 -5 -11 -10 0 -6 -3
-10 -7 -9 -19 3 -53 -15 -53 -27 0 -19 -16 -18 -24 1 -3 9 0 15 9 15 8 0 15 4
15 9 0 10 -26 9 -36 -2 -4 -4 -12 -7 -18 -7 -6 0 -5 4 3 9 11 7 8 10 -10 16
-14 5 -25 3 -27 -3 -2 -7 -11 -4 -22 6 -15 12 -16 18 -7 24 8 5 4 8 -11 8 -13
0 -21 4 -18 9 10 15 -5 41 -22 41 -12 0 -13 3 -4 12 17 17 15 28 -5 28 -23 0
-12 9 18 14 13 2 29 -1 36 -6 6 -5 28 -10 47 -11 20 -1 38 -7 40 -13 2 -6 15
-10 28 -9 13 1 31 3 41 4 10 0 22 11 27 24 12 26 30 56 46 73 21 24 1 97 -32
119 -13 8 -24 11 -24 6 0 -22 -30 -17 -57 9 -15 16 -34 30 -40 30 -7 0 -13 5
-13 10 0 6 -26 10 -59 10 -40 0 -62 5 -71 15 -8 9 -21 13 -34 10 -68 -18 -102
-29 -110 -37 -25 -21 -62 2 -60 39 1 15 -3 20 -13 16 -9 -4 -16 3 -20 16 -3
11 -10 21 -17 21 -6 0 -4 5 4 10 11 7 17 4 22 -9 8 -22 45 -34 45 -16 0 7 -6
11 -14 8 -7 -3 -13 0 -13 6 0 10 21 16 43 12 4 0 7 5 7 13 0 14 45 28 56 17 3
-3 11 -6 17 -6 7 -1 11 -6 10 -11 -1 -7 8 -9 22 -6 14 2 25 8 25 13 0 5 9 9
20 9 17 0 20 -7 20 -45 0 -35 5 -47 21 -55 15 -9 24 -8 34 0 8 7 14 15 13 18
-4 12 22 52 33 52 6 0 18 -7 27 -16 14 -15 16 -15 24 5 4 11 12 21 18 21 16 0
12 25 -7 46 -20 22 -78 52 -108 56 -16 2 -21 -4 -25 -36 l-5 -39 -14 26 c-10
19 -22 27 -42 27 -27 0 -59 -22 -59 -41 0 -6 -5 -7 -11 -4 -6 4 -9 33 -7 73 2
46 -1 67 -10 70 -6 2 -10 8 -6 13 3 5 1 9 -5 9 -5 0 -12 -6 -14 -12 -4 -9 -6
-8 -6 3 -1 8 4 20 11 27 19 19 6 13 -21 -8z m-103 -95 c-3 -3 -9 2 -12 12 -6
14 -5 15 5 6 7 -7 10 -15 7 -18z m28 10 c-1 -8 -5 -17 -8 -21 -5 -4 -4 16 1
34 3 9 9 -1 7 -13z m354 -65 c0 -5 -2 -10 -4 -10 -3 0 -8 5 -11 10 -3 6 -1 10
4 10 6 0 11 -4 11 -10z m-207 -223 l27 -14 -28 -14 c-15 -7 -35 -20 -44 -28
-10 -8 -18 -11 -18 -7 0 5 -19 -3 -42 -17 -53 -30 -82 -32 -67 -5 7 13 7 23 0
31 -34 42 109 87 172 54z m270 -53 c14 -10 27 -28 27 -38 0 -11 8 -28 17 -38
16 -18 16 -18 0 -12 -13 4 -17 1 -17 -15 0 -14 -5 -19 -16 -14 -13 5 -13 7 -2
14 10 7 9 9 -5 9 -10 0 -24 15 -34 35 -9 19 -22 35 -28 35 -13 0 -55 33 -55
43 0 13 89 -1 113 -19z m-925 -233 c25 -1 30 -29 11 -59 -15 -23 -64 -17 -83
10 -12 17 -12 22 1 38 9 10 23 16 32 15 9 -2 26 -4 39 -4z m-398 -385 c0 -3
-4 -8 -10 -11 -5 -3 -10 -1 -10 4 0 6 5 11 10 11 6 0 10 -2 10 -4z m2540 -140
c0 -3 -4 -8 -10 -11 -5 -3 -10 -1 -10 4 0 6 5 11 10 11 6 0 10 -2 10 -4z
m-1980 -220 c0 -3 -4 -8 -10 -11 -5 -3 -10 -1 -10 4 0 6 5 11 10 11 6 0 10 -2
10 -4z"/>
<path d="M3740 1920 c0 -5 7 -7 15 -4 8 4 15 8 15 10 0 2 -7 4 -15 4 -8 0 -15
-4 -15 -10z"/>
<path d="M1507 1914 c-6 -6 -45 -13 -92 -17 -20 -2 -32 -24 -34 -60 -1 -10 3
-16 8 -12 6 3 14 -2 19 -12 9 -15 13 -16 39 -3 15 7 34 15 42 16 8 1 17 8 21
15 5 7 19 10 34 7 15 -3 29 -1 33 5 3 6 1 7 -5 3 -7 -4 -12 -1 -12 6 -1 12
-34 58 -42 58 -3 0 -7 -3 -11 -6z"/>
<path d="M802 1874 c-12 -13 -10 -19 14 -41 33 -30 42 -17 19 26 -18 36 -16
35 -33 15z"/>
<path d="M3497 1865 c-4 -8 -3 -16 1 -19 4 -3 9 4 9 15 2 23 -3 25 -10 4z"/>
<path d="M2543 1847 c-9 -20 -9 -27 0 -30 9 -3 9 -8 0 -18 -11 -11 -13 -10
-13 4 0 16 -40 46 -40 30 0 -4 -5 -1 -10 7 -7 11 -8 5 -3 -20 3 -19 13 -46 22
-60 14 -20 14 -23 1 -15 -13 8 -13 6 -1 -8 7 -9 18 -14 24 -10 6 3 7 1 3 -6
-4 -6 0 -14 8 -17 9 -3 16 -12 16 -20 0 -8 5 -14 10 -14 6 0 10 5 10 10 0 6 7
10 15 10 8 0 15 5 15 11 0 6 6 7 13 2 6 -4 4 5 -6 20 -10 15 -16 31 -13 36 3
4 -7 14 -22 20 -26 12 -26 13 -7 27 18 13 20 13 23 -1 2 -8 7 -13 12 -10 12 8
1 35 -15 35 -6 0 -16 9 -21 21 -10 21 -10 21 -21 -4z m21 -13 c3 -8 2 -12 -4
-9 -6 3 -10 10 -10 16 0 14 7 11 14 -7z"/>
<path d="M362 1832 c-1 -14 3 -31 9 -39 10 -11 15 -9 30 8 21 25 16 45 -15 51
-17 4 -22 0 -24 -20z"/>
<path d="M983 1828 c-17 -8 -23 -20 -23 -44 0 -18 6 -36 13 -40 6 -4 9 -4 5 0
-10 12 44 67 60 61 9 -3 12 1 10 12 -4 20 -35 25 -65 11z"/>
<path d="M453 1823 c-26 -3 -33 -9 -33 -27 0 -12 5 -27 12 -34 7 -7 8 -12 4
-12 -5 0 -3 -7 4 -15 10 -12 9 -16 -4 -21 -9 -3 -16 -10 -16 -15 0 -5 -9 -18
-21 -30 -11 -11 -18 -27 -15 -35 3 -8 -1 -14 -9 -14 -8 0 -15 -4 -15 -8 0 -11
46 -32 70 -32 13 0 20 -7 20 -20 0 -11 7 -20 15 -20 8 0 15 6 15 14 0 8 7 16
15 20 17 6 21 46 4 46 -6 0 -8 9 -4 20 4 12 2 26 -3 33 -5 7 -13 33 -16 59 -6
40 -4 50 13 65 24 20 27 34 9 31 -7 0 -28 -3 -45 -5z"/>
<path d="M651 1796 c-21 -22 -21 -24 -5 -41 17 -16 18 -16 31 1 14 20 18 64 5
64 -5 0 -19 -11 -31 -24z"/>
<path d="M3490 1805 c-10 -12 -10 -19 -2 -27 17 -17 37 5 25 27 -9 15 -11 15
-23 0z"/>
<path d="M3630 1805 c0 -21 27 -30 45 -15 23 19 18 30 -15 30 -20 0 -30 -5
-30 -15z"/>
<path d="M1451 1773 c3 -19 -2 -27 -10 -14 -7 11 -13 11 -32 -3 -13 -9 -18
-16 -12 -16 7 0 10 -6 7 -13 -3 -8 2 -14 11 -14 9 0 14 6 11 14 -3 8 -2 12 3
8 14 -8 41 5 41 20 0 8 -5 17 -10 20 -6 4 -10 3 -9 -2z"/>
<path d="M2470 1759 c0 -5 5 -7 10 -4 6 3 10 8 10 11 0 2 -4 4 -10 4 -5 0 -10
-5 -10 -11z"/>
<path d="M2623 1755 c-3 -9 -3 -18 -1 -21 3 -3 8 4 11 16 6 23 -1 27 -10 5z"/>
<path d="M3340 1750 c-8 -5 -12 -11 -9 -14 7 -8 49 5 49 15 0 12 -21 11 -40
-1z"/>
<path d="M723 1703 c-7 -2 -13 -12 -13 -21 -1 -28 -24 -50 -67 -61 -59 -16
-69 -32 -39 -64 14 -15 31 -24 39 -21 8 3 18 0 23 -7 5 -8 3 -10 -6 -4 -9 5
-11 4 -6 -4 9 -14 26 -5 26 14 0 20 58 58 80 52 10 -3 21 0 23 7 3 6 12 -6 21
-26 19 -45 31 -50 23 -10 -3 16 0 40 8 55 13 26 13 27 -6 17 -24 -14 -39 -5
-39 22 0 11 -10 29 -22 39 -22 20 -25 21 -45 12z"/>
<path d="M1320 1632 c0 -10 -3 -22 -7 -26 -17 -17 -11 -44 13 -55 38 -17 49
-14 60 17 15 42 -3 82 -38 82 -20 0 -28 -5 -28 -18z"/>
<path d="M980 1600 c0 -5 5 -10 11 -10 5 0 7 5 4 10 -3 6 -8 10 -11 10 -2 0
-4 -4 -4 -10z"/>
<path d="M950 1580 c8 -5 11 -10 5 -10 -5 0 -3 -4 5 -10 9 -6 17 -5 22 3 8 13
-9 27 -32 27 -13 0 -13 -1 0 -10z"/>
<path d="M3579 1563 c-1 -4 -1 -11 0 -15 0 -5 -6 -8 -14 -8 -8 0 -15 -4 -15
-9 0 -5 -9 -13 -20 -16 -35 -11 -24 -52 13 -46 16 2 6 -29 -15 -45 -15 -10
-17 -14 -6 -11 12 4 15 2 11 -9 -3 -7 -9 -14 -14 -14 -5 0 -9 -9 -9 -21 0 -11
4 -18 9 -14 5 3 17 -2 25 -11 17 -17 66 -12 66 6 0 6 5 10 10 10 6 0 10 -9 10
-20 0 -12 7 -20 17 -20 9 0 27 -10 40 -21 20 -20 21 -24 8 -48 -7 -14 -21 -47
-31 -73 -9 -27 -20 -48 -23 -48 -4 0 -8 -17 -9 -37 -2 -21 -7 -39 -12 -41 -12
-4 -13 -49 -1 -56 4 -3 16 3 26 14 10 11 24 20 30 20 15 0 25 22 25 56 0 30
15 31 25 2 13 -40 13 -48 4 -42 -12 7 -11 -10 3 -40 9 -22 17 -25 50 -24 l38
1 0 109 c0 101 -1 108 -20 108 -12 0 -20 7 -20 18 0 9 -6 29 -14 44 -12 23
-12 26 0 21 8 -3 14 0 14 6 0 6 -5 11 -11 11 -7 0 -9 9 -6 22 3 12 1 30 -4 40
-6 11 -11 32 -11 48 -1 16 -4 29 -7 28 -3 -1 -13 1 -21 5 -37 13 -60 14 -71 1
-13 -16 -33 -19 -24 -4 3 6 2 10 -3 10 -5 0 -9 7 -9 15 0 8 4 15 9 15 14 0 -3
54 -23 73 -11 10 -20 14 -20 10z"/>
<path d="M3188 1503 c-9 -46 -4 -58 24 -59 32 -1 35 3 11 22 -17 13 -17 14 1
7 13 -4 17 -3 12 5 -10 16 -46 35 -48 25z"/>
<path d="M665 1470 c3 -4 -9 -6 -25 -4 -22 3 -30 -1 -35 -16 -6 -19 -8 -19
-38 -4 l-31 17 18 -28 c15 -23 16 -31 5 -51 -10 -19 -10 -27 -1 -36 7 -7 12
-21 12 -33 0 -11 9 -37 20 -58 42 -78 -12 -109 -100 -58 -52 29 -92 43 -112
38 -13 -3 -39 -10 -58 -15 l-35 -8 53 -25 c28 -13 52 -27 52 -31 0 -5 7 -8 15
-8 8 0 15 -7 15 -15 0 -10 10 -15 30 -15 17 0 39 -9 51 -21 21 -21 89 -35 89
-18 0 5 11 9 25 9 14 0 25 5 25 11 0 13 20 33 40 41 9 3 27 -4 40 -15 15 -12
18 -18 8 -14 -10 3 -20 2 -23 -3 -4 -6 2 -10 12 -10 19 0 53 -32 53 -51 0 -19
38 -60 45 -49 3 5 3 15 -1 22 -4 7 -3 8 4 4 7 -4 12 -1 12 8 0 17 34 39 44 29
3 -3 6 -1 6 6 0 7 5 9 10 6 6 -4 10 5 10 19 0 14 -5 26 -10 26 -12 0 -59 50
-60 63 0 4 -11 19 -25 33 -14 14 -25 29 -25 34 0 12 -22 9 -33 -5 -4 -6 -12
-3 -21 8 -7 9 -18 17 -24 17 -6 0 -23 16 -37 35 -21 27 -25 40 -18 60 4 14 12
25 16 25 11 -1 37 27 37 39 0 6 5 11 10 11 6 0 10 8 10 18 0 14 -8 19 -30 19
-16 0 -27 -3 -25 -7z m95 -251 c12 -8 10 -10 -10 -8 -14 1 -36 -3 -50 -9 -24
-11 -24 -12 7 -8 38 5 47 -2 27 -21 -8 -8 -12 -19 -9 -24 4 -5 -1 -6 -10 -3
-10 4 -14 13 -11 23 5 13 4 13 -8 -1 -17 -23 -29 -23 -49 0 -12 13 -13 21 -6
32 9 13 10 12 5 -2 -3 -10 -1 -20 4 -23 6 -4 10 5 10 19 0 15 7 26 18 29 31 8
67 7 82 -4z"/>
<path d="M3253 1452 c1 -14 5 -18 11 -12 7 7 6 14 -1 21 -9 9 -12 7 -10 -9z"/>
<path d="M915 1381 c-3 -5 -2 -12 3 -15 5 -3 9 1 9 9 0 17 -3 19 -12 6z"/>
<path d="M3230 1381 c0 -5 -8 -17 -17 -26 -16 -16 -15 -17 2 -14 10 2 17 8 16
13 -2 5 3 12 9 16 9 5 9 9 1 14 -6 4 -11 3 -11 -3z"/>
<path d="M970 1346 c-10 -13 -7 -16 15 -22 15 -4 30 -17 35 -30 7 -17 17 -24
35 -24 15 0 24 4 20 10 -4 6 -10 8 -14 6 -4 -3 -8 4 -8 15 -2 26 -29 53 -39
38 -5 -9 -11 -7 -19 5 -11 14 -14 14 -25 2z"/>
<path d="M3435 1340 c-21 -23 -4 -27 19 -4 18 17 20 24 8 24 -5 0 -17 -9 -27
-20z"/>
<path d="M912 1330 c-17 -28 -17 -28 28 -27 43 2 54 13 18 19 -13 2 -22 9 -20
16 3 19 -12 14 -26 -8z"/>
<path d="M877 1292 c-3 -4 -2 -15 2 -24 6 -17 7 -17 18 1 10 15 9 20 -2 25 -8
3 -16 2 -18 -2z"/>
<path d="M2470 1260 c0 -5 5 -10 11 -10 5 0 7 5 4 10 -3 6 -8 10 -11 10 -2 0
-4 -4 -4 -10z"/>
<path d="M3427 1229 c7 -7 15 -10 18 -7 3 3 -2 9 -12 12 -14 6 -15 5 -6 -5z"/>
<path d="M3405 1200 c3 -4 -2 -10 -10 -13 -10 -4 -12 -16 -8 -41 4 -28 2 -36
-9 -36 -8 0 -20 -11 -26 -25 -6 -14 -16 -25 -22 -25 -6 0 -8 -5 -4 -12 5 -7 2
-9 -8 -5 -10 3 -24 -3 -35 -15 -10 -12 -12 -18 -5 -14 6 4 12 2 12 -3 0 -6 8
-11 18 -11 9 0 13 4 7 8 -5 4 -11 14 -13 22 -1 8 7 4 18 -10 11 -14 20 -20 20
-14 0 7 6 14 14 17 10 4 12 0 9 -14 -3 -10 -12 -19 -20 -19 -12 0 -14 -11 -9
-56 5 -53 14 -83 17 -56 2 12 5 26 9 40 1 4 2 10 1 15 0 4 8 7 18 7 11 0 22 4
26 10 3 5 11 7 18 5 15 -6 50 72 36 81 -7 4 -6 10 0 18 10 12 1 36 -15 39 -5
1 -9 12 -8 25 1 12 -3 22 -8 22 -5 0 -5 8 0 18 13 26 9 45 -11 48 -9 1 -15 -1
-12 -6z m30 -219 c-3 -6 -11 -11 -16 -11 -5 0 -4 6 3 14 14 16 24 13 13 -3z"/>
<path d="M2505 1140 c3 -5 8 -10 11 -10 2 0 4 5 4 10 0 6 -5 10 -11 10 -5 0
-7 -4 -4 -10z"/>
<path d="M3190 1039 c-22 -13 4 -27 38 -20 23 4 24 6 7 9 -11 2 -22 8 -25 13
-3 4 -12 4 -20 -2z"/>
<path d="M1005 1010 c3 -5 8 -10 11 -10 2 0 4 5 4 10 0 6 -5 10 -11 10 -5 0
-7 -4 -4 -10z"/>
<path d="M3015 980 c3 -5 8 -10 11 -10 2 0 4 5 4 10 0 6 -5 10 -11 10 -5 0 -7
-4 -4 -10z"/>
<path d="M901 927 c-6 -8 -8 -17 -5 -20 7 -7 44 14 44 25 0 13 -27 9 -39 -5z"/>
<path d="M3550 911 c0 -6 4 -12 8 -15 5 -3 9 1 9 9 0 8 -4 15 -9 15 -4 0 -8
-4 -8 -9z"/>
<path d="M3390 890 c0 -5 7 -10 15 -10 8 0 15 5 15 10 0 6 -7 10 -15 10 -8 0
-15 -4 -15 -10z"/>
<path d="M310 836 c-5 -7 -8 -15 -5 -18 3 -3 0 -19 -6 -36 -10 -29 -8 -34 12
-52 36 -30 53 -26 45 10 -4 23 0 36 14 50 28 28 25 35 -15 47 -26 8 -37 8 -45
-1z"/>
</g>
</svg>
